name processed_emg_signals
nRows=99
nColumns=7
 
endheader
time	LGLTMED	LRF	LADDLONG	LST	LTA	LGM
0.0	0.0862382950361454	0.1953281638318531	0.0078305593748854	0.003595256037608	0.0002994973980384	0.0372298107303534
0.001	0.1001314332969388	0.1817823436377199	0.015100094134787	0.0029347066705754	0.0073897675852725	0.0320267796642368
0.002	0.113953339582444	0.1683004589354515	0.0223473193787985	0.0022635094227484	0.0144310144709516	0.0266789917985791
0.003	0.1276938573945384	0.1548897806926095	0.0295675558663042	0.0015817804457289	0.0214180845721733	0.0211863211017042
0.004	0.1413428782006826	0.1415574748340802	0.0367561627075277	0.0008896411265486	0.0283458746150513	0.0155487545211577
0.005	0.154890355915048	0.1283105929414866	0.0439085448874928	0.0001872179573342	0.0352093393863669	0.0097663940443025
0.006	0.1683263212823814	0.1151560632503472	0.0510201606852129	0.0005253575886593	0.0420034994658798	0.0038394586865881
0.007	0.181640896126263	0.102100681966877	0.0580865289646252	0.0012479491734104	0.0487234488151956	0.0022317135961737
0.008	0.1948243074246226	0.0891511049239258	0.065103236314733	0.0019804157018211	0.0553643622009765	0.0084466640755174
0.009000000000000001	0.2078669011764874	0.0763138395928254	0.0720659440180383	0.0027226114198329	0.0619215024319266	0.0148048115021865
0.01	0.2207591560247876	0.0635952374659563	0.0789703948269154	0.0034743860022466	0.0683902273906602	0.0213054504465702
0.011	0.2334916966010312	0.0510014868221374	0.0858124195285644	0.0042355846296929	0.0747659968429274	0.0279477497324056
0.012	0.2460553065590207	0.0385386058851335	0.0925879432797233	0.005006048054388	0.0810443790080527	0.0347307509687882
0.013000000000000001	0.2584409412665647	0.0262124363835078	0.0992929916940774	0.0057856126544706	0.0872210568756783	0.0416533671858898
0.014	0.2706397401260791	0.0140286375185725	0.1059236966664446	0.0065741104768423	0.0932918342549897	0.0487143815803151
0.015	0.2826430384971741	0.0019926803463805	0.1124763019204355	0.0073713692685282	0.0992526415439509	0.0559124463763145
0.016	0.2944423791965663	0.0098901574214873	0.1189471682688831	0.0081772124967308	0.105099541207508	0.0632460818094311
0.017	0.3060295235526545	0.0216147961946358	0.1253327785785888	0.0089914593577732	0.1108287329552058	0.0707136752394392
0.018000000000000002	0.3173964619937471	0.0331763588558692	0.1316297424322343	0.0098139247753238	0.1164365586099371	0.0783134803995602
0.019	0.3285354241510235	0.044570174688046	0.1378348004824812	0.0106444193883069	0.1219195066605468	0.0860436167891223
0.02	0.3394388884594475	0.055791782876921	0.1439448284933934	0.0114827495290107	0.1272742164918462	0.093902069216738
0.021	0.3500995912426644	0.0668369355928598	0.1499568410659151	0.0123287171919633	0.1324974822869546	0.101886687501093
0.022	0.360510535270358	0.077701600655503	0.1558679950443879	0.0131821199941225	0.1375862565983674	0.1099951863362048
0.023	0.3706649977793961	0.0883819637868214	0.1616755926021925	0.0140427511270521	0.1425376535860202	0.1182251453279457
0.024	0.3805565379533411	0.0988744304597115	0.1673770840051948	0.0149103993017365	0.1473489519222333	0.1265740092083963
0.025	0.3901790038583579	0.1091756273496399	0.1729700700521979	0.0157848486867644	0.1520175973647938	0.1350390882343524
0.026000000000000002	0.3995265388364529	0.1192824033985078	0.1784523041931319	0.0166658788407112	0.1565412050002602	0.1436175587761465
0.027	0.4085935873596865	0.1291918304999347	0.1838216943258415	0.0175532646395142	0.1609175611605446	0.1523064641026238
0.028	0.4173749003513058	0.1389012038157994	0.1890763042736259	0.0184467761997753	0.1651446250170426	0.1611027153680088
0.029	0.425865539981773	0.1484080417343476	0.1942143549458344	0.0193461787989289	0.1692205298580566	0.170003092806184
0.03	0.434060883949364	0.1577100854802677	0.1992342251840735	0.020251232793222	0.1731435840570069	0.1790042471377957
0.031	0.4419566292560704	0.1668052983877272	0.2041344522965877	0.0211616935344672	0.1769122717403199	0.1881027011952925
0.032	0.4495487954899843	0.1756918648470774	0.2089137322836382	0.0220773112864192	0.1805252531649497	0.1972948517707581
0.033	0.4568337276252009	0.1843681889365506	0.2135709197577299	0.0229978311416837	0.1839813648159695	0.2065769716910436
0.034	0.4638080983494849	0.192832892749766	0.2181050275623756	0.0239229929398824	0.187279619234772	0.215945212124344
0.035	0.4704689099292088	0.201084814430323	0.2225152260949232	0.024852531187899	0.190419204588339	0.2253956051220396
0.036000000000000004	0.4768134956202495	0.2091230059242191	0.22680084233895	0.0257861749829517	0.1933994839897365	0.2349240663993135
0.037	0.4828395206330939	0.2169467304613154	0.2309613586132713	0.026723647939241	0.196219994579942	0.2445263983579062
0.038	0.4885449826597954	0.2245554597764906	0.2349964110448497	0.0276646681190041	0.1988804463808458	0.2541982933541892
0.039	0.4939282119695861	0.231948871081177	0.2389057877735982	0.0286089479687728	0.2013807209290755	0.2639353372156853
0.04	0.4989878710790743	0.2391268437962695	0.2426894268970426	0.0295561942616048	0.2037208696999969	0.2737330130086697
0.041	0.5037229540015866	0.2460894560570227	0.2463474141629714	0.0305061080460691	0.2059011123307559	0.2835867050593247
0.042	0.5081327850790297	0.2528369810009294	0.2498799804180047	0.0314583846026393	0.2079218346508016	0.2934917032301938
0.043000000000000003	0.5122170173983293	0.2593698828491947	0.253287498820346	0.0324127134081998	0.209783586527833	0.3034432074533541
0.044	0.5159756307934372	0.265688812792602	0.256570481825123	0.0333687781092626	0.2114870795366319	0.3134363325210687
0.045	0.5194089294331835	0.2717946046923676	0.2597295779512248	0.0343262565045799	0.2130331844576762	0.3234661131340782
0.046	0.5225175389948926	0.2776882706070721	0.262765568339311	0.0352848205377891	0.2144229286118531	0.3335275092069208
0.047	0.5253024034238852	0.2833709961566896	0.2656793631115632	0.0362441363006845	0.2156574930369494	0.3436154114287624
0.048	0.5277647812792086	0.2888441357357762	0.2684719975442743	0.037203864047707	0.2167382095111571	0.3537246470770555
0.049	0.5299062416668132	0.2941092075874926	0.2711446280655587	0.0381636582222429	0.2176665574282928	0.3638499860802915
0.05	0.5317286597627049	0.2991678887510693	0.2736985280903128	0.039123167495346	0.2184441605291621	0.3739861473249453
0.051000000000000004	0.5332342119302499	0.3040220098950748	0.2761350837055368	0.0400820348174775	0.2190727834934148	0.3841278052005754
0.052000000000000005	0.5344253704378433	0.3086735500488657	0.2784557892182509	0.041039897484007	0.2195543283961641	0.3942695963759512
0.053	0.5353048977852077	0.3131246312442159	0.2806622425791507	0.0419963872150418	0.2198908310336969	0.4044061267977938
0.054	0.5358758406485762	0.3173775130784215	0.2827561406946225	0.0429511302502418	0.2200844571225295	0.4145319789024737
0.055	0.5361415234567849	0.3214345872098016	0.2847392746400793	0.0439037474591007	0.2201374983758255	0.4246417190295495
0.056	0.5361055416111213	0.3252983717951729	0.2866135247869493	0.0448538544672017	0.2200523684611116	0.4347299050247707
0.057	0.5357717543629368	0.3289715058790604	0.2883808558557519	0.0458010617988692	0.219831598843325	0.444791094018645
0.058	0.5351442773638482	0.3324567437430087	0.2900433119065607	0.0467449750366331	0.2194778345173952	0.4548198503655346
0.059000000000000004	0.534227474904235	0.3357569492241311	0.2916030112786442	0.0476851949978484	0.2189938296348089	0.4648107537269793
0.06	0.5330259518560849	0.3388750900114283	0.2930621414902279	0.0486213179288094	0.2183824430290263	0.4747584072818064
0.061	0.5315445453364176	0.3418142319281323	0.2944229541091692	0.0495529357166177	0.2176466336452496	0.4846574460445517
0.062	0.5297883161081631	0.3445775332085916	0.2956877596050989	0.0504796361190796	0.2167894558811575	0.4945025452725084
0.063	0.5277625397362542	0.3471682387774681	0.2968589221931602	0.0514010030129626	0.2158140548466655	0.5042884289406768
0.064	0.5254726975174379	0.349589674539319	0.2979388546797129	0.0523166166608345	0.2147236615522581	0.5140098782624494
0.065	0.5229244672033563	0.3518452416865173	0.2989300133195402	0.053226053996892	0.2135215880367698	0.5236617402330108
0.066	0.5201237135375264	0.3539384110337368	0.299834892694452	0.0541288889319787	0.2122112224462821	0.5332389361711942
0.067	0.5170764786282256	0.3558727173866663	0.3006560206230251	0.0550246926781511	0.2107960240761821	0.5427364702348688
0.068	0.5137889721803632	0.3576517539529188	0.3013959531110515	0.0559130340929983	0.209279518388477	0.5521494378839017
0.069	0.5102675616100808	0.3592791668019653	0.3020572693526074	0.0567934800439827	0.2076652920160919	0.5614730342641756
0.07	0.5065187620659916	0.360758649380525	0.302642566791141	0.057665595792954	0.2059569877656447	0.5707025624859102
0.07100000000000001	0.5025492263809238	0.362093937089386	0.30315445625024	0.0585289454009565	0.2041582996297801	0.5798334417699893
0.07200000000000001	0.4983657349774571	0.3632888019267826	0.3035955571429346	0.0593830921532893	0.2022729678196049	0.5888612154369908
0.073	0.4939751857496463	0.3643470472036823	0.3039684927683652	0.0602275990047481	0.2003047738273136	0.5977815587146311
0.074	0.4893845839423683	0.3652725023356022	0.30427588570386	0.0610620290448572	0.1982575355284019	0.6065902863409798
0.075	0.4846010320485507	0.366069017716326	0.3045203532998942	0.0618859459827873	0.1961351023323796	0.6152833599426689
0.076	0.4796317197433344	0.3667404596775934	0.3047045032852651	0.0626989146515775	0.1939413503903488	0.6238568951696108
0.077	0.4744839138727091	0.3672907055393726	0.3048309294886176	0.0635005015312007	0.1916801778671613	0.6323071685698278
0.078	0.4691649485127853	0.3677236387538307	0.3049022076825518	0.0642902752899076	0.1893555002853725	0.6406306241898926
0.079	0.4636822151146176	0.3680431441462866	0.304920891556007	0.0650678073432898	0.1869712459474734	0.6488238798877279
0.08	0.4580431527483035	0.3682531032555355	0.3048895088197317	0.0658326724304822	0.1845313514422768	0.6568837333456137
0.081	0.4522552384593007	0.3683573897763411	0.3048105574498387	0.0665844492067311	0.182039757240827	0.664807167772036
0.082	0.446325977748959	0.3683598651075633	0.3046865020733056	0.0673227208515663	0.1795004033866402	0.6725913572817285
0.083	0.4402628951909159	0.3682643740092358	0.3045197704983876	0.0680470756916203	0.1769172252846565	0.6802336719440878
0.084	0.4340735251944153	0.3680747403734903	0.3043127503925164	0.0687571078370422	0.1742941495926822	0.6877316824910004
0.085	0.4277654029253286	0.3677947631134788	0.3040677861090745	0.0694524178303837	0.1716350902186823	0.6950831646758716
0.08600000000000001	0.4213460553953533	0.3674282121746412	0.3037871756647556	0.0701326133066349	0.1689439444266698	0.7022861032763463
0.08700000000000001	0.4148229927292612	0.3669788246720923	0.3034731678681391	0.0707973096629648	0.1662245890535827	0.7093386957337257
0.088	0.4082036996198517	0.3664503011575158	0.3031279596008658	0.0714461307365725	0.1634808768391686	0.7162393554221428
0.089	0.401495626979961	0.3658463020190952	0.3027536932514348	0.0720787094888182	0.1607166328706016	0.7229867145401554
0.09	0.394706183800862	0.3651704440179935	0.3023524543021257	0.0726946886937519	0.1579356511431891	0.7295796266168199
0.091	0.3878427292264239	0.364426296965381	0.3019262690690335	0.0732937216289758	0.1551416912381203	0.7360171686238135
0.092	0.3809125648523389	0.3636173805433104	0.3014771025950264	0.0738754727667545	0.1523384751177424	0.7422986426849727
0.093	0.3739229272596747	0.3627471612728918	0.3010068566957475	0.0744396184632404	0.1495296840383598	0.748423577374013
0.094	0.3668809807909938	0.3618190496318346	0.3005173681580314	0.0749858476436078	0.1467189555801472	0.7543917285913512
0.095	0.3597938105765502	0.3608363973238663	0.3000104070903148	0.0755138624808784	0.1439098807933873	0.7602030800112466
0.096	0.3526684158166985	0.3598024947015932	0.299487675423971	0.0760233790661176	0.14110600145986	0.7658578430912335
0.097	0.3455117033258568	0.3587205683449332	0.2989508055646898	0.076514128067505	0.1383108074680255	0.7713564566363537
0.098	0.3383304813423021	0.3575937787967013	0.298401359192173	0.0769858553756381	0.1355277343003592	0.7766995859107133
